# xmcd
#
# Track frame offsets:
#	150
#	18123
#	37676
#	55404
#	75716
#	96533
#	117018
#	139230
#	152904
#	167880
#	189675
#	208660
#	224772
#	242233
#	260445
#	275654
#	291530
#	309961
#
# Disc length: 4408 seconds
#
# Revision: 0
# Processed by: cddbd v1.5.2PL0 Copyright (c) Steve Scherf et al.
# Submitted via: dBpowerAMP V4.0
#
DISCID=13113612
DTITLE=Various Artist - Top Hits USA RA40
DYEAR=1900
DGENRE=
TTITLE0=Whitney Houston - I Believe in You And me (Record Version)
TTITLE1=Don Henley - Through Your Hands
TTITLE2=Gloria Estefan - I'm Not Giving You up (Single Edit)
TTITLE3=Lionel Richie - Still in Love (Edit)
TTITLE4=Celine Dion - Send me a Lover
TTITLE5=Kenny Loggins - For The First Time
TTITLE6=Madonna - Don't Cry For me Argentina (Radio Edit)
TTITLE7=Phil Collins - It's in Your Eyes (Any Time at All)
TTITLE8=Jim Brickman with Martina McBride - Valentine
TTITLE9=R. Kelly - I Believe I Can Fly (no Intro)
TTITLE10=No Doubt - Don't Speak
TTITLE11=John Mellencamp - Just Another Day
TTITLE12=Jewel - You Were Meant For me (Album Edit)
TTITLE13=Duncan Sheik - Barely Breathing (Radio Edit)
TTITLE14=Cardigans - Lovefool
TTITLE15=Merril Bainbridge - Mouth
TTITLE16=Peter Cetera with Ronna Reeves - Sos
TTITLE17=Madonna - Don't Cry For me Argentina (Miami Mix Edit)
EXTD=
EXTT0=
EXTT1=
EXTT2=
EXTT3=
EXTT4=
EXTT5=
EXTT6=
EXTT7=
EXTT8=
EXTT9=
EXTT10=
EXTT11=
EXTT12=
EXTT13=
EXTT14=
EXTT15=
EXTT16=
EXTT17=
PLAYORDER=
